<mxfile host="app.diagrams.net" modified="2021-06-23T20:44:35.413Z" agent="5.0 (Macintosh; Intel Mac OS X 10_15_7) AppleWebKit/537.36 (KHTML, like Gecko) Chrome/91.0.4472.106 Safari/537.36" etag="J3p3ql6S_sSWui9Tmgam" version="14.8.0" type="github">
  <diagram id="2yjvQDpTnPMSPkw4Ze5V" name="Page-1">
    <mxGraphModel dx="1373" dy="1059" grid="1" gridSize="10" guides="1" tooltips="1" connect="1" arrows="1" fold="1" page="1" pageScale="1" pageWidth="936" pageHeight="893" math="0" shadow="0">
      <root>
        <mxCell id="0" />
        <mxCell id="1" parent="0" />
        <mxCell id="nEPoYZ3ES7ItR_FWfAQS-1" value="" style="rounded=1;whiteSpace=wrap;html=1;" vertex="1" parent="1">
          <mxGeometry x="20" y="20" width="900" height="60" as="geometry" />
        </mxCell>
        <mxCell id="nEPoYZ3ES7ItR_FWfAQS-2" value="&lt;font style=&quot;font-size: 24px&quot;&gt;Prachi Phatak&lt;/font&gt;" style="text;html=1;strokeColor=none;fillColor=none;align=center;verticalAlign=middle;whiteSpace=wrap;rounded=0;" vertex="1" parent="1">
          <mxGeometry x="275" y="25" width="340" height="50" as="geometry" />
        </mxCell>
        <mxCell id="nEPoYZ3ES7ItR_FWfAQS-3" value="" style="rounded=1;whiteSpace=wrap;html=1;" vertex="1" parent="1">
          <mxGeometry x="20" y="20" width="120" height="60" as="geometry" />
        </mxCell>
        <mxCell id="nEPoYZ3ES7ItR_FWfAQS-5" value="" style="shape=link;html=1;entryX=1;entryY=0.5;entryDx=0;entryDy=0;" edge="1" parent="1" target="nEPoYZ3ES7ItR_FWfAQS-3">
          <mxGeometry width="100" relative="1" as="geometry">
            <mxPoint x="20" y="49.329999999999984" as="sourcePoint" />
            <mxPoint x="120" y="49.329999999999984" as="targetPoint" />
          </mxGeometry>
        </mxCell>
        <mxCell id="nEPoYZ3ES7ItR_FWfAQS-6" value="" style="shape=link;html=1;entryX=1;entryY=0.5;entryDx=0;entryDy=0;width=11.333333333333332;" edge="1" parent="1">
          <mxGeometry width="100" relative="1" as="geometry">
            <mxPoint x="20" y="69.99999999999993" as="sourcePoint" />
            <mxPoint x="140" y="70.67" as="targetPoint" />
            <Array as="points">
              <mxPoint x="80" y="70.67" />
            </Array>
          </mxGeometry>
        </mxCell>
        <mxCell id="nEPoYZ3ES7ItR_FWfAQS-7" value="" style="shape=link;html=1;entryX=1;entryY=0.5;entryDx=0;entryDy=0;width=15.333333333333332;" edge="1" parent="1">
          <mxGeometry width="100" relative="1" as="geometry">
            <mxPoint x="20" y="39.99999999999993" as="sourcePoint" />
            <mxPoint x="140" y="40.67" as="targetPoint" />
          </mxGeometry>
        </mxCell>
        <mxCell id="nEPoYZ3ES7ItR_FWfAQS-8" value="" style="rounded=1;whiteSpace=wrap;html=1;" vertex="1" parent="1">
          <mxGeometry x="20" y="110" width="890" height="240" as="geometry" />
        </mxCell>
        <mxCell id="nEPoYZ3ES7ItR_FWfAQS-9" value="&lt;font style=&quot;font-size: 24px&quot;&gt;Portfolio&lt;/font&gt;" style="text;html=1;strokeColor=none;fillColor=none;align=center;verticalAlign=middle;whiteSpace=wrap;rounded=0;" vertex="1" parent="1">
          <mxGeometry x="370" y="120" width="150" height="60" as="geometry" />
        </mxCell>
        <mxCell id="nEPoYZ3ES7ItR_FWfAQS-10" value="&lt;font style=&quot;font-size: 24px&quot;&gt;Hire Me!&lt;/font&gt;" style="rounded=1;whiteSpace=wrap;html=1;" vertex="1" parent="1">
          <mxGeometry x="385" y="280" width="120" height="50" as="geometry" />
        </mxCell>
        <mxCell id="nEPoYZ3ES7ItR_FWfAQS-11" value="" style="rounded=1;whiteSpace=wrap;html=1;" vertex="1" parent="1">
          <mxGeometry x="35" y="460" width="860" height="410" as="geometry" />
        </mxCell>
        <mxCell id="nEPoYZ3ES7ItR_FWfAQS-12" value="&lt;font style=&quot;font-size: 14px&quot;&gt;All&lt;/font&gt;" style="text;html=1;strokeColor=none;fillColor=none;align=center;verticalAlign=middle;whiteSpace=wrap;rounded=0;" vertex="1" parent="1">
          <mxGeometry x="190" y="400" width="50" height="30" as="geometry" />
        </mxCell>
        <mxCell id="nEPoYZ3ES7ItR_FWfAQS-13" value="&lt;font style=&quot;font-size: 14px&quot;&gt;Responsive&lt;/font&gt;" style="text;html=1;strokeColor=none;fillColor=none;align=center;verticalAlign=middle;whiteSpace=wrap;rounded=0;" vertex="1" parent="1">
          <mxGeometry x="330" y="400" width="50" height="30" as="geometry" />
        </mxCell>
        <mxCell id="nEPoYZ3ES7ItR_FWfAQS-14" value="&lt;font style=&quot;font-size: 14px&quot;&gt;Backend&lt;/font&gt;" style="text;html=1;strokeColor=none;fillColor=none;align=center;verticalAlign=middle;whiteSpace=wrap;rounded=0;" vertex="1" parent="1">
          <mxGeometry x="478" y="400" width="50" height="30" as="geometry" />
        </mxCell>
        <mxCell id="nEPoYZ3ES7ItR_FWfAQS-15" value="&lt;font style=&quot;font-size: 14px&quot;&gt;Open API&lt;/font&gt;" style="text;html=1;strokeColor=none;fillColor=none;align=center;verticalAlign=middle;whiteSpace=wrap;rounded=0;" vertex="1" parent="1">
          <mxGeometry x="610" y="400" width="70" height="30" as="geometry" />
        </mxCell>
        <mxCell id="nEPoYZ3ES7ItR_FWfAQS-16" value="&lt;h1&gt;&lt;br&gt;&lt;/h1&gt;&lt;h1&gt;&lt;font style=&quot;font-size: 36px&quot;&gt;Heading&lt;/font&gt;&lt;/h1&gt;&lt;p&gt;&lt;font size=&quot;3&quot;&gt;Lorem ipsum dolor sit amet, consectetur adipisicing elit, sed do eiusmod tempor incididunt ut labore et dolore magna aliqua.&lt;/font&gt;&lt;/p&gt;" style="text;html=1;strokeColor=none;fillColor=none;spacing=5;spacingTop=-20;whiteSpace=wrap;overflow=hidden;rounded=0;" vertex="1" parent="1">
          <mxGeometry x="468" y="470" width="282" height="360" as="geometry" />
        </mxCell>
        <mxCell id="nEPoYZ3ES7ItR_FWfAQS-17" value="" style="outlineConnect=0;fontColor=#232F3E;gradientColor=none;fillColor=#D05C17;strokeColor=none;dashed=0;verticalLabelPosition=bottom;verticalAlign=top;align=center;html=1;fontSize=12;fontStyle=0;aspect=fixed;pointerEvents=1;shape=mxgraph.aws4.container_registry_image;" vertex="1" parent="1">
          <mxGeometry x="100" y="490" width="340" height="340" as="geometry" />
        </mxCell>
        <mxCell id="nEPoYZ3ES7ItR_FWfAQS-18" value="Read More --&amp;gt;" style="html=1;shadow=0;dashed=0;shape=mxgraph.bootstrap.rrect;rSize=5;strokeColor=none;strokeWidth=1;fillColor=none;fontColor=#0085FC;whiteSpace=wrap;align=left;verticalAlign=middle;spacingLeft=0;fontStyle=0;fontSize=16;spacing=5;" vertex="1" parent="1">
          <mxGeometry x="468" y="690" width="182" height="40" as="geometry" />
        </mxCell>
        <mxCell id="nEPoYZ3ES7ItR_FWfAQS-19" value="Demo --&amp;gt;" style="html=1;shadow=0;dashed=0;shape=mxgraph.bootstrap.rrect;rSize=5;strokeColor=none;strokeWidth=1;fillColor=none;fontColor=#0085FC;whiteSpace=wrap;align=left;verticalAlign=middle;spacingLeft=0;fontStyle=0;fontSize=16;spacing=5;" vertex="1" parent="1">
          <mxGeometry x="468" y="730" width="182" height="40" as="geometry" />
        </mxCell>
      </root>
    </mxGraphModel>
  </diagram>
</mxfile>
